<?xml version="1.0" encoding="utf-8"?>
<!-- Generator: Adobe Illustrator 26.0.0, SVG Export Plug-In . SVG Version: 6.00 Build 0)  -->
<svg version="1.1" id="Layer_1" xmlns="http://www.w3.org/2000/svg" xmlns:xlink="http://www.w3.org/1999/xlink" x="0px" y="0px"
	 viewBox="0 0 599.4 200" style="enable-background:new 0 0 599.4 200;" xml:space="preserve">
<style type="text/css">
	.st0{fill:none;stroke:#CCCCCC;}
	.st1{fill:#555555;}
	.st2{fill:#666666;}
</style>
<g>
	<path class="st0" d="M599.4,15.4H1.2"/>
	<path class="st0" d="M599.4,76.6H1.2"/>
	<path class="st0" d="M599.4,124H1.2"/>
	<path class="st0" d="M599.4,184.6H1.2"/>
	<path class="st1" d="M121.2,74.8h6.6V44.5c0-6.2-0.5-12.2-0.9-18.1h0.4l5.9,11.9l20,36.5h7.2V16.9h-6.7V47c0,6,0.5,12.6,1,18.4
		h-0.4l-5.9-12l-20.1-36.5h-7.2V74.8z M190.9,75.9c10,0,18.9-8.3,18.9-22.4c0-14.4-8.9-22.6-18.9-22.6c-10.1,0-19,8.2-19,22.6
		C171.9,67.6,180.8,75.9,190.9,75.9z M190.9,69.9c-7.2,0-11.9-6.6-11.9-16.4c0-9.9,4.7-16.6,11.9-16.6c7.1,0,11.8,6.6,11.8,16.6
		C202.7,63.2,198,69.9,190.9,69.9z M231.8,75.9c2.6,0,5.3-0.8,7.5-1.7l-1.4-5.4c-1.3,0.6-3.2,1.2-4.6,1.2c-4.7,0-6.3-3.1-6.3-8.3
		v-24h11.1v-5.8h-11.1V19.8h-5.8l-0.8,12.1l-6.4,0.5v5.4h6.1v23.8C220.3,70.1,223.1,75.9,231.8,75.9z M262,75.9
		c10,0,18.9-8.3,18.9-22.4c0-14.4-8.9-22.6-18.9-22.6c-10.1,0-19,8.2-19,22.6C243,67.6,251.9,75.9,262,75.9z M262,69.9
		c-7.2,0-11.9-6.6-11.9-16.4c0-9.9,4.7-16.6,11.9-16.6c7.1,0,11.8,6.6,11.8,16.6C273.8,63.2,269.1,69.9,262,69.9z M324.5,75.9
		c11.6,0,18.7-7.3,18.7-16.4c0-8.6-4.9-12.6-11.4-15.6l-7.8-3.6c-4.3-1.9-9.1-3.9-9.1-9.6c0-5.1,4.1-8.4,10.3-8.4
		c5,0,9.1,2.1,12.5,5.4l3.7-4.7c-3.8-4.3-9.6-7.2-16.2-7.2c-10.1,0-17.4,6.5-17.4,15.4c0,8.4,6,12.6,11.2,14.8l7.9,3.6
		c5.2,2.4,9.2,4.3,9.2,10.3c0,5.6-4.3,9.4-11.5,9.4c-5.7,0-11.3-2.8-15.3-7.2l-4.1,5.1C310,72.6,316.7,75.9,324.5,75.9z M362.8,75.9
		c5,0,9.6-2.8,13.5-6.2h0.3l0.6,5.1h5.6V48.5c0-10.7-4.2-17.6-14.2-17.6c-6.5,0-12.3,3-16,5.5l2.7,5.1c3.2-2.3,7.5-4.7,12.3-4.7
		c6.7,0,8.4,5.3,8.4,10.8c-17.4,2.1-25.1,6.7-25.1,16C350.9,71.4,356,75.9,362.8,75.9z M364.7,70c-4,0-7.2-2-7.2-6.9
		c0-5.5,4.6-9.1,18.4-10.7v11.9C372,68.1,368.7,70,364.7,70z M395.8,74.8h6.8V43.7c4.1-4.3,7-6.6,11.1-6.6c5.4,0,7.8,3.4,7.8,11.4
		v26.2h6.9V47.6c0-10.9-3.9-16.7-12.5-16.7c-5.6,0-9.9,3.2-13.7,7.3h-0.2l-0.7-6.2h-5.6V74.8z M452.5,75.9c9.6,0,14.8-5.8,14.8-12.8
		c0-8.1-6.5-10.7-12.4-13c-4.7-1.7-8.8-3.3-8.8-7.4c0-3.3,2.3-6.2,7.5-6.2c3.6,0,6.5,1.7,9.3,3.8l3.3-4.6c-3.2-2.7-7.7-4.8-12.7-4.8
		c-8.9,0-14.1,5.3-14.1,12.1c0,7.3,6.2,10.2,11.9,12.5c4.5,1.7,9.4,3.7,9.4,8.1c0,3.8-2.7,6.8-8.1,6.8c-4.9,0-8.5-2.1-12-5.1
		l-3.4,4.8C441,73.3,446.7,75.9,452.5,75.9z M494.4,74.8h7V56.5l9.5-11.8l16.6,30.1h7.7l-19.9-35.8l17.3-22h-7.9l-23,29.1h-0.2V16.9
		h-7V74.8z M543.1,74.8h7V50.3h10.2c11.2,0,19.3-5.5,19.3-17.1c0-12-8.1-16.3-19.3-16.3h-17.2V74.8z M550.1,44.4V22.9h9.3
		c8.6,0,13.3,2.7,13.3,10.3c0,7.5-4.7,11.2-13.3,11.2H550.1z M573.4,74.8h7.8l-16.9-30.2l-5.4,3.8L573.4,74.8z"/>
	<path class="st1" d="M125.4,184v-59.6h5.2l27.2,46.5h-2.7l27-46.5h5.2V184h-6v-50.1h1.4l-24.9,42.6h-3l-25-42.6h1.6V184H125.4z
		 M223.6,184.4c-4.3,0-8.2-1-11.7-2.9c-3.4-2-6.1-4.7-8.1-8.1c-2-3.5-3-7.4-3-11.8c0-4.5,1-8.4,3-11.8c2-3.4,4.7-6.1,8.1-8
		c3.4-1.9,7.3-2.9,11.7-2.9c4.4,0,8.3,1,11.7,2.9c3.5,1.9,6.2,4.6,8.1,8c2,3.4,3,7.3,3,11.8c0,4.4-1,8.4-3,11.8
		c-1.9,3.4-4.6,6.1-8.1,8.1C231.9,183.5,228,184.4,223.6,184.4z M223.6,179.1c3.2,0,6.1-0.7,8.6-2.1c2.5-1.5,4.5-3.5,5.9-6.1
		c1.5-2.7,2.2-5.7,2.2-9.2c0-3.5-0.7-6.6-2.2-9.2c-1.4-2.6-3.4-4.6-5.9-6c-2.5-1.5-5.3-2.2-8.5-2.2c-3.2,0-6,0.7-8.5,2.2
		c-2.5,1.4-4.5,3.4-6,6c-1.5,2.6-2.2,5.7-2.2,9.2c0,3.5,0.7,6.5,2.2,9.2c1.5,2.6,3.5,4.7,6,6.1C217.7,178.4,220.5,179.1,223.6,179.1
		z M281.6,138.9c3.6,0,6.8,0.7,9.5,2.1c2.8,1.4,4.9,3.5,6.5,6.3c1.6,2.8,2.4,6.4,2.4,10.7v26h-6v-25.4c0-4.7-1.2-8.3-3.6-10.6
		c-2.3-2.4-5.6-3.7-9.9-3.7c-3.2,0-6,0.7-8.3,2c-2.3,1.2-4.1,3.1-5.4,5.5c-1.2,2.4-1.9,5.3-1.9,8.7V184h-6v-44.7h5.8v12.3l-0.9-2.3
		c1.4-3.2,3.7-5.8,6.8-7.6C273.6,139.8,277.3,138.9,281.6,138.9z M330.4,184.4c-4.2,0-7.4-1.1-9.7-3.4c-2.3-2.3-3.4-5.5-3.4-9.6v-42
		h6v41.6c0,2.6,0.7,4.6,2,6c1.4,1.4,3.3,2.1,5.8,2.1c2.7,0,4.9-0.8,6.6-2.3l2.1,4.3c-1.2,1.1-2.6,1.9-4.3,2.4
		C333.9,184.2,332.2,184.4,330.4,184.4z M309.3,144.3v-5H337v5H309.3z M362.9,184.4c-3.7,0-7.2-0.5-10.5-1.5c-3.3-1.1-5.9-2.4-7.7-4
		l2.7-4.8c1.8,1.4,4.1,2.6,7,3.6c2.8,1,5.8,1.4,8.9,1.4c4.3,0,7.3-0.7,9.2-2c1.9-1.4,2.8-3.1,2.8-5.4c0-1.6-0.5-2.9-1.6-3.8
		c-1-1-2.4-1.7-4.1-2.1c-1.7-0.5-3.6-0.9-5.7-1.3c-2.1-0.3-4.2-0.7-6.3-1.2c-2-0.5-3.9-1.1-5.6-2c-1.7-0.9-3.1-2.1-4.2-3.7
		c-1-1.5-1.5-3.6-1.5-6.1c0-2.4,0.7-4.6,2-6.6c1.4-1.9,3.3-3.4,6-4.5c2.7-1.1,5.9-1.7,9.7-1.7c2.9,0,5.8,0.4,8.7,1.2
		c2.9,0.7,5.3,1.7,7.1,3l-2.6,4.9c-2-1.4-4.1-2.3-6.4-2.9c-2.3-0.6-4.5-0.9-6.8-0.9c-4,0-7,0.7-8.9,2.1c-1.9,1.4-2.8,3.1-2.8,5.3
		c0,1.7,0.5,3,1.5,4c1.1,1,2.5,1.7,4.2,2.3c1.8,0.5,3.7,0.9,5.7,1.3c2.1,0.3,4.2,0.8,6.2,1.3c2.1,0.5,4,1.1,5.7,2
		c1.8,0.8,3.1,2,4.2,3.5c1.1,1.5,1.6,3.4,1.6,5.9c0,2.6-0.7,4.9-2.2,6.8c-1.4,1.9-3.5,3.3-6.3,4.4
		C370.1,183.9,366.8,184.4,362.9,184.4z M411.4,184.4c-4.7,0-8.7-1-12.3-2.9c-3.5-2-6.3-4.7-8.3-8.1c-2-3.5-3-7.4-3-11.8
		c0-4.4,0.9-8.3,2.8-11.7c1.9-3.4,4.5-6.1,7.8-8c3.3-2,7.1-3,11.2-3c4.2,0,7.9,1,11.1,2.9c3.3,1.9,5.9,4.5,7.7,8
		c1.9,3.4,2.8,7.3,2.8,11.8c0,0.3,0,0.6-0.1,0.9c0,0.3,0,0.6,0,0.9h-38.9V159h35.7l-2.4,1.8c0-3.2-0.7-6.1-2.1-8.6
		c-1.4-2.6-3.2-4.5-5.6-6c-2.4-1.4-5.1-2.1-8.3-2.1c-3.1,0-5.8,0.7-8.3,2.1c-2.4,1.4-4.3,3.4-5.7,6s-2,5.5-2,8.8v0.9
		c0,3.4,0.7,6.4,2.2,9c1.5,2.6,3.6,4.6,6.3,6c2.7,1.4,5.8,2.1,9.3,2.1c2.7,0,5.2-0.5,7.6-1.4c2.4-1,4.4-2.4,6.1-4.4l3.4,3.9
		c-2,2.4-4.5,4.2-7.5,5.4C418.2,183.8,415,184.4,411.4,184.4z M443.8,184v-44.7h5.8v12.2l-0.6-2.1c1.2-3.4,3.3-6,6.3-7.7
		c3-1.8,6.6-2.7,11-2.7v5.9c-0.2,0-0.5,0-0.7,0c-0.2-0.1-0.5-0.1-0.7-0.1c-4.7,0-8.4,1.4-11.1,4.3c-2.7,2.8-4,6.9-4,12.2V184H443.8z
		 M477.3,184v-44.7h5.8v12.2l-0.6-2.1c1.2-3.4,3.3-6,6.3-7.7c3-1.8,6.6-2.7,11-2.7v5.9c-0.2,0-0.5,0-0.7,0c-0.2-0.1-0.5-0.1-0.7-0.1
		c-4.7,0-8.4,1.4-11.1,4.3c-2.7,2.8-4,6.9-4,12.2V184H477.3z M535.5,184v-9.9l-0.3-1.6V156c0-3.8-1.1-6.7-3.2-8.8
		c-2.1-2-5.2-3.1-9.4-3.1c-2.9,0-5.6,0.5-8.3,1.4c-2.6,1-4.8,2.2-6.6,3.8l-2.7-4.5c2.3-1.9,5-3.4,8.2-4.4c3.2-1.1,6.5-1.6,10-1.6
		c5.8,0,10.2,1.4,13.4,4.3c3.2,2.8,4.8,7.2,4.8,13V184H535.5z M520.1,184.4c-3.3,0-6.3-0.5-8.8-1.6c-2.4-1.1-4.3-2.7-5.6-4.6
		c-1.3-2-2-4.3-2-6.8c0-2.3,0.5-4.4,1.6-6.3c1.1-1.9,2.9-3.5,5.4-4.6c2.6-1.2,6-1.8,10.2-1.8h15.4v4.5h-15.2c-4.3,0-7.3,0.8-9,2.3
		c-1.6,1.5-2.5,3.4-2.5,5.7c0,2.6,1,4.6,3,6.1c2,1.5,4.8,2.3,8.3,2.3c3.4,0,6.3-0.8,8.8-2.3c2.5-1.6,4.3-3.9,5.4-6.8l1.4,4.2
		c-1.1,3-3.1,5.3-6,7.1C527.8,183.5,524.3,184.4,520.1,184.4z M571.8,184.4c-4.2,0-7.4-1.1-9.7-3.4s-3.4-5.5-3.4-9.6v-42h6v41.6
		c0,2.6,0.7,4.6,2,6c1.4,1.4,3.3,2.1,5.8,2.1c2.7,0,4.9-0.8,6.6-2.3l2.1,4.3c-1.2,1.1-2.6,1.9-4.3,2.4
		C575.2,184.2,573.5,184.4,571.8,184.4z M550.7,144.3v-5h27.7v5H550.7z"/>
	<path class="st2" d="M14.2,68.7l0-1.3l5.9-6.1h1.2l-4.3,4.5l-0.6,0.6L14.2,68.7z M13.3,71.1v-9.8h1v9.8H13.3z M20.3,71.1l-4.2-4.9
		l0.7-0.8l4.8,5.6H20.3z M23.2,71.1v-9.8h3.7c0.8,0,1.5,0.1,2.1,0.4c0.6,0.3,1.1,0.6,1.4,1.1c0.3,0.5,0.5,1.1,0.5,1.8
		c0,0.7-0.2,1.3-0.5,1.8c-0.3,0.5-0.8,0.9-1.4,1.1c-0.6,0.3-1.3,0.4-2.1,0.4h-3.1l0.5-0.5v3.6H23.2z M29.9,71.1l-2.5-3.6h1.1
		l2.5,3.6H29.9z M24.2,67.6l-0.5-0.5h3.1c1,0,1.7-0.2,2.2-0.6c0.5-0.4,0.8-1,0.8-1.8c0-0.8-0.3-1.4-0.8-1.8
		c-0.5-0.4-1.2-0.6-2.2-0.6h-3.1l0.5-0.5V67.6z"/>
	<path class="st2" d="M14.2,173.7h5.2v0.9h-5.2V173.7z M14.3,178.2h5.9v0.9h-6.9v-9.8H20v0.9h-5.7V178.2z M22.6,179.1v-9.8h3.7
		c0.8,0,1.5,0.1,2.1,0.4c0.6,0.3,1.1,0.6,1.4,1.1c0.3,0.5,0.5,1.1,0.5,1.8c0,0.7-0.2,1.3-0.5,1.8c-0.3,0.5-0.8,0.9-1.4,1.1
		c-0.6,0.3-1.3,0.4-2.1,0.4h-3.1l0.5-0.5v3.6H22.6z M29.3,179.1l-2.5-3.6h1.1l2.5,3.6H29.3z M23.7,175.6l-0.5-0.5h3.1
		c1,0,1.7-0.2,2.2-0.6c0.5-0.4,0.8-1,0.8-1.8c0-0.8-0.3-1.4-0.8-1.8c-0.5-0.4-1.2-0.6-2.2-0.6h-3.1l0.5-0.5V175.6z"/>
</g>
</svg>
