<?xml version="1.0" encoding="utf-8"?>
<!-- Generator: Adobe Illustrator 26.0.0, SVG Export Plug-In . SVG Version: 6.00 Build 0)  -->
<svg version="1.1" id="Layer_1" xmlns="http://www.w3.org/2000/svg" xmlns:xlink="http://www.w3.org/1999/xlink" x="0px" y="0px"
	 viewBox="0 0 600 600" style="enable-background:new 0 0 600 600;" xml:space="preserve">
<style type="text/css">
	.st0{fill:#CD68F3;}
</style>
<g>
	<path class="st0" d="M300.2,300h-0.5l-0.2-283.3h1L300.2,300z"/>
</g>
<g>
	<path class="st0" d="M300.2,299.9l-0.4,0.3l-166.7-229l0.8-0.6L300.2,299.9z"/>
</g>
<g>
	<path class="st0" d="M300.1,299.8l-0.2,0.5L30.4,213l0.3-1L300.1,299.8z"/>
</g>
<g>
	<path class="st0" d="M300,299.8l0.2,0.5L30.8,388l-0.3-1L300,299.8z"/>
</g>
<g>
	<path class="st0" d="M299.8,299.9l0.4,0.3L133.9,529.5l-0.8-0.6L299.8,299.9z"/>
</g>
<g>
	<path class="st0" d="M299.8,300h0.5l0.2,283.3h-1L299.8,300z"/>
</g>
<g>
	<path class="st0" d="M299.8,300.1l0.4-0.3l166.7,229l-0.8,0.6L299.8,300.1z"/>
</g>
<g>
	<path class="st0" d="M300,300.2l0.2-0.5L569.6,387l-0.3,1L300,300.2z"/>
</g>
<g>
	<path class="st0" d="M300.1,300.2l-0.2-0.5L569.3,212l0.3,1L300.1,300.2z"/>
</g>
<g>
	<path class="st0" d="M300.2,300.1l-0.4-0.3L466.1,70.5l0.8,0.6L300.2,300.1z"/>
</g>
</svg>
