<?xml version="1.0" encoding="utf-8"?>
<!-- Generator: Adobe Illustrator 26.0.0, SVG Export Plug-In . SVG Version: 6.00 Build 0)  -->
<svg version="1.1" id="Layer_1" xmlns="http://www.w3.org/2000/svg" xmlns:xlink="http://www.w3.org/1999/xlink" x="0px" y="0px"
	 viewBox="0 0 110 110" style="enable-background:new 0 0 110 110;" xml:space="preserve">
<style type="text/css">
	.st0{fill:#CD68F3;}
	.st1{display:none;fill:#D9D9D9;}
</style>
<g>
	<path class="st0" d="M55,0c-0.2,0-0.3,0-0.5,0v19c0.2,0,0.3,0,0.5,0c19.9,0,36,16.1,36,36S74.9,91,55,91c-9.8,0-18.6-3.9-25.1-10.2
		L18.4,96c9.7,8.7,22.6,14,36.6,14c30.4,0,55-24.6,55-55S85.4,0,55,0z"/>
	<path class="st1" d="M19,55c0-19.7,15.8-35.7,35.5-36V0C24.4,0.3,0,24.8,0,55c0,16.3,7.1,30.9,18.4,41l11.5-15.2
		C23.2,74.2,19,65.1,19,55z"/>
</g>
</svg>
