<?xml version="1.0" encoding="utf-8"?>
<!-- Generator: Adobe Illustrator 26.0.0, SVG Export Plug-In . SVG Version: 6.00 Build 0)  -->
<svg version="1.1" id="Layer_1" xmlns="http://www.w3.org/2000/svg" xmlns:xlink="http://www.w3.org/1999/xlink" x="0px" y="0px"
	 viewBox="0 0 1920 1080" style="enable-background:new 0 0 1920 1080;" xml:space="preserve">
<style type="text/css">
	.st0{display:none;fill:#9EFF71;}
</style>
<g>
	<rect class="st0" width="1920" height="1080"/>
	<path d="M1890,0H30C13.4,0,0,13.4,0,30v1020c0,16.6,13.4,30,30,30h1860c16.6,0,30-13.4,30-30V30C1920,13.4,1906.6,0,1890,0z
		 M1885,1025c0,11-9,20-20,20H55c-11,0-20-9-20-20V55c0-11,9-20,20-20h1810c11,0,20,9,20,20V1025z"/>
</g>
</svg>
